HIERARCHY
ROOT Hips
{
  OFFSET 1.03514 100.887 51.4643
  CHANNELS 6 Xposition Yposition Zposition Zrotation Xrotation Yrotation
  JOINT RightUpLeg
  {
    OFFSET -8.9458 -8.66707 0.101652
    CHANNELS 3 Zrotation Xrotation Yrotation
    JOINT RightLeg
    {
      OFFSET 0 -44.4227 1.3727
      CHANNELS 3 Zrotation Xrotation Yrotation
      JOINT RightFoot
      {
        OFFSET 0.253549 -42.0924 -1.46059
        CHANNELS 3 Zrotation Xrotation Yrotation
        JOINT RightToes
        {
          OFFSET 0.04 -4.41509 8.4991
          CHANNELS 3 Zrotation Xrotation Yrotation
          End Site
          {
            OFFSET -0.08 -0.137448 9.77979
          }
        }
      }
    }
  }
  JOINT Spine
  {
    OFFSET 0 11.8905 0
    CHANNELS 3 Zrotation Xrotation Yrotation
    JOINT Spine1
    {
      OFFSET 0 25.6574 0.127663
      CHANNELS 3 Zrotation Xrotation Yrotation
      JOINT HEad
      {
        OFFSET 0 8.73416 0.011341
        CHANNELS 3 Zrotation Xrotation Yrotation
        End Site
        {
          OFFSET -0.29 12.7742 2.51395
        }
      }
      JOINT LeftShoulder1
      {
        OFFSET 8.99 -0.362252 -0.22
        CHANNELS 3 Zrotation Xrotation Yrotation
        JOINT LeftArm
        {
          OFFSET 10.2827 -0.00338 0.322123
          CHANNELS 3 Zrotation Xrotation Yrotation
          JOINT LeftForeArm
          {
            OFFSET 32.7669 0.099144 -1.42434
            CHANNELS 3 Zrotation Xrotation Yrotation
            JOINT LeftHand
            {
              OFFSET 27.5643 0.085362 1.02216
              CHANNELS 3 Zrotation Xrotation Yrotation
              End Site
              {
                OFFSET 16.7443 -0.6 1.50291
              }
            }
          }
        }
      }
      JOINT RightShoulder
      {
        OFFSET -8.99 -0.362252 -0.22
        CHANNELS 3 Zrotation Xrotation Yrotation
        JOINT RightArm
        {
          OFFSET -10.2827 -0.00338 0.322123
          CHANNELS 3 Zrotation Xrotation Yrotation
          JOINT RightForeArm
          {
            OFFSET -32.8971 0.099144 -1.42434
            CHANNELS 3 Zrotation Xrotation Yrotation
            JOINT RightHand
            {
              OFFSET -27.4921 0.085362 1.02216
              CHANNELS 3 Zrotation Xrotation Yrotation
              End Site
              {
                OFFSET -16.6312 -0.6 1.50291
              }
            }
          }
        }
      }
    }
  }
  JOINT LeftUpLeg
  {
    OFFSET 8.9458 -8.66707 0.101652
    CHANNELS 3 Zrotation Xrotation Yrotation
    JOINT LeftLeg
    {
      OFFSET 0 -44.4227 1.3727
      CHANNELS 3 Zrotation Xrotation Yrotation
      JOINT LeftFoot
      {
        OFFSET -0.253549 -42.0924 -1.46059
        CHANNELS 3 Zrotation Xrotation Yrotation
        JOINT LeftToes
        {
          OFFSET -0.04 -4.41509 8.4991
          CHANNELS 3 Zrotation Xrotation Yrotation
          End Site
          {
            OFFSET 0.08 -0.047448 9.77979
          }
        }
      }
    }
  }
}
MOTION
Frames:	12
Frame Time:	0.0166667
14.2177 101.894 -78.5644 -0.389538 0.0576491 -0.807449 2.69343 -21.6934 0.0315217 4.62811 21.8254 -19.6712 -1.12357 1.3297 -0.15262 0.0462048 0.000533964 0.662642 0.676588 4.00922 -0.12414 0.0500795 1.42845 0.0342046 0.32291 -0.47688 -3.32711 -2.48481e-017 1.59028e-015 1.98785e-016 -89.8579 -26.4888 -26.2143 -17.1678 15.0272 -18.0152 0.368473 9.90896 -0.00117926 -0.288528 0.142684 -1.76253 83.5187 -34.8597 2.49575 18.3361 14.1196 12.1147 -0.369625 9.91382 0.00119887 0.950886 3.60536 0.0788727 -7.04336 36.2655 18.7428 -17.3849 -5.83156 -0.363647 -8.66542e-012 2.1386e-011 1.19875e-011 
13.8888 101.928 -77.0465 -1.07976 0.202111 -0.858542 3.61038 -21.046 0.930395 5.06074 22.1863 -20.3764 -0.93481 0.400246 -0.173993 0.296206 -0.372581 0.383326 1.03188 4.12669 -0.0336712 0.922064 1.24413 0.00394646 0.18743 -0.319244 -3.19586 -1.11816e-016 -7.95139e-016 -0 -90.1239 -27.4101 -24.7062 -17.0099 14.9927 -17.9384 0.368473 9.90896 -0.00117926 -0.758127 0.1071 -2.14199 84.3398 -34.8884 3.4407 17.9822 14.1735 12.4903 -0.369625 9.91382 0.00119887 2.38029 1.73742 1.40944 -7.09276 40.3903 18.3509 -16.9807 -4.15146 -0.110428 3.19064 7.12089 -0.504126 
13.5601 101.951 -75.5586 -1.68131 0.337956 -0.868004 4.41534 -20.4302 1.85105 5.52663 22.5613 -21.2048 -0.816292 -0.487114 -0.193347 0.523242 -0.917295 0.24326 1.37094 4.23 0.0325962 1.63698 1.11017 -0.0207282 0.116473 -0.198087 -3.10368 -8.69683e-017 7.95139e-016 -0 -90.2877 -28.2774 -23.2557 -16.8598 14.9485 -17.7832 0.368473 9.90896 -0.00117926 -1.06715 0.0822228 -2.40889 85.0349 -34.8602 4.36899 17.6883 14.248 12.9893 -0.369625 9.91382 0.00119887 3.68922 -0.186082 2.70239 -6.87548 44.4573 18.0449 -16.6001 -2.73561 0.0999641 5.40057 13.2167 0.178992 
13.2279 101.941 -74.147 -2.04465 0.455422 -0.759256 4.96273 -19.9201 3.06589 6.15313 22.9676 -22.6375 -0.900487 -1.2381 -0.206875 0.633074 -2.02661 0.677986 1.68097 4.30359 0.0257739 1.9015 1.08514 -0.0286252 0.26087 -0.133769 -3.10989 1.49089e-016 -1.59028e-015 3.97569e-016 -90.2297 -29.005 -21.9605 -16.7188 14.8785 -17.4332 0.368473 9.90896 -0.00117926 -0.861909 0.0891728 -2.34512 85.2909 -34.7089 5.19991 17.566 14.382 13.8641 -0.369625 9.91382 0.00119887 4.50013 -2.28482 4.07157 -5.87838 48.4532 17.621 -16.2889 -1.93816 0.208621 4.01502 16.7567 4.95276 
12.9036 101.921 -72.7932 -2.26637 0.54936 -0.595463 5.33518 -19.4359 3.87896 6.67878 23.4084 -23.7164 -1.06735 -1.96718 -0.21776 0.870081 -3.20744 0.939173 1.93789 4.33746 -0.00445218 1.96855 1.1947 -0.0310205 0.430689 -0.211386 -3.19255 -4.22417e-016 -7.95139e-016 -0 -90.1277 -29.6509 -20.8482 -16.6121 14.7898 -16.9236 0.368473 9.90896 -0.00117926 -0.558395 0.10734 -2.15474 85.5182 -34.4387 6.09582 17.5125 14.5346 14.853 -0.369625 9.91382 0.00119887 5.11648 -4.41536 5.04907 -4.93067 52.0746 17.8393 -15.9137 -1.75434 0.228464 1.17337 17.9571 10.2506 
12.5933 101.917 -71.5016 -2.37367 0.598849 -0.418896 5.58249 -18.9108 3.41113 6.72636 23.9483 -23.2512 -1.26071 -2.77236 -0.227383 1.54735 -3.99072 0.0182068 2.0749 4.30263 -0.0185325 1.99091 1.54173 -0.0367338 0.460949 -0.611698 -3.36596 1.2424e-017 0 -9.93923e-017 -90.1433 -30.2547 -20.0201 -16.5806 14.6872 -16.2755 0.368473 9.90896 -0.00117926 -0.512703 0.120667 -1.99444 86.1238 -34.0071 7.25688 17.4561 14.6815 15.7589 -0.369625 9.91382 0.00119887 5.64446 -6.4706 4.97593 -5.33991 54.9129 20.3763 -15.2017 -2.37403 0.142526 -0.837006 16.33 12.7665 
12.3083 101.902 -70.2505 -2.42291 0.641421 -0.215676 5.74072 -18.4019 2.51219 6.62554 24.5402 -22.3742 -1.42224 -3.60881 -0.23742 2.16817 -4.69859 -0.878213 2.20629 4.24054 -0.0348657 1.97549 1.95316 -0.0419392 0.419586 -1.0676 -3.58125 3.23025e-016 1.59028e-015 1.98785e-016 -90.1982 -30.7962 -19.3545 -16.5761 14.5588 -15.4143 0.368473 9.90896 -0.00117926 -0.551252 0.136623 -1.78817 86.7822 -33.4708 8.47641 17.4302 14.8263 16.6357 -0.369625 9.91382 0.00119887 5.97571 -8.49897 4.50545 -6.27245 57.0709 23.0949 -14.6481 -3.56729 -0.0204434 -2.18528 13.5711 13.8064 
12.0677 101.857 -69.0199 -2.47741 0.72516 0.0212914 5.79442 -17.9758 1.69043 6.6337 25.1624 -21.9111 -1.45329 -4.46237 -0.250813 2.21195 -5.55812 -0.432983 2.43729 4.18496 -0.0623662 1.97372 2.25595 -0.0446014 0.286224 -1.32338 -3.78076 -6.02566e-016 0 -4.96962e-017 -90.2282 -31.2365 -18.7333 -16.5696 14.387 -14.2401 0.368473 9.90896 -0.00117926 -0.569723 0.160411 -1.48928 87.2417 -32.8852 9.60438 17.4542 14.9641 17.4679 -0.369625 9.91382 0.00119887 6.11053 -10.5314 4.16889 -6.30262 58.7669 23.3051 -14.7985 -5.22887 -0.241762 -2.53972 11.46 13.3407 
11.8533 101.79 -67.8082 -2.54507 0.797499 0.270104 5.84624 -17.5458 1.05696 6.71502 25.7718 -21.6422 -1.41907 -5.33899 -0.265172 2.2653 -6.39423 0.0283072 2.7284 4.12989 -0.0899435 2.00464 2.5529 -0.0481519 0.17506 -1.5264 -4.00378 2.0655e-016 3.18055e-015 -6.21202e-017 -90.3344 -31.6619 -18.236 -16.5337 14.1833 -12.8521 0.368473 9.90896 -0.00117926 -0.716738 0.182771 -1.16625 87.7257 -32.2322 10.6935 17.5002 15.0975 18.2664 -0.369625 9.91382 0.00119887 6.11833 -12.4875 3.6879 -5.98526 59.9031 22.331 -15.2442 -7.17424 -0.510727 -2.98846 8.73349 12.5197 
11.6532 101.693 -66.6119 -2.68138 0.819959 0.516858 6.02117 -17.0557 1.00742 6.97091 26.3172 -21.659 -1.34614 -6.26135 -0.279409 2.82961 -7.07622 -0.761511 3.10429 4.0849 -0.110076 2.13167 2.89919 -0.0566062 0.259112 -1.7713 -4.29553 -2.04997e-016 1.59028e-015 -4.96962e-017 -90.6321 -32.1394 -17.9512 -16.41 13.9445 -11.2359 0.368473 9.90896 -0.00117926 -1.15039 0.194384 -0.889516 88.4169 -31.5093 11.7402 17.5434 15.2277 19.0405 -0.369625 9.91382 0.00119887 6.06587 -14.3058 2.95612 -5.79891 60.3926 20.6897 -15.7823 -9.32612 -0.83641 -4.43244 4.49556 12.6731 
11.4678 101.596 -65.4171 -2.80369 0.798384 0.74461 6.2061 -16.4924 1.18784 7.26329 26.7945 -21.8572 -1.25142 -7.16502 -0.292542 3.41536 -7.69676 -1.68188 3.47786 4.03707 -0.120984 2.27336 3.26457 -0.066195 0.336351 -1.96023 -4.58092 -1.14301e-015 1.59028e-015 -9.93923e-017 -91.006 -32.6912 -17.7322 -16.2673 13.7029 -9.63244 0.368473 9.90896 -0.00117926 -1.73693 0.20061 -0.606659 89.1876 -30.7246 12.7646 17.5934 15.3538 19.7804 -0.369625 9.91382 0.00119887 5.91476 -15.9572 1.97308 -5.79742 60.1788 19.1817 -16.3241 -11.2571 -1.14244 -6.27647 -0.404866 13.2074 
11.2933 101.53 -64.2052 -2.83586 0.701281 0.935799 6.3412 -15.7887 1.43276 7.48387 27.1714 -22.2521 -1.17781 -8.00893 -0.304328 3.5441 -8.22162 -1.63832 3.75564 3.97125 -0.118547 2.3554 3.67367 -0.0744223 0.241184 -2.01063 -4.79628 -4.09993e-016 0 -0 -91.3855 -33.3724 -17.4831 -16.1563 13.5053 -8.29591 0.368473 9.90896 -0.00117926 -2.40143 0.20321 -0.303682 89.9931 -29.8519 13.7999 17.6617 15.4804 20.5006 -0.369625 9.91382 0.00119887 5.63244 -17.3566 0.638954 -6.27601 59.1688 18.9878 -16.6619 -12.4137 -1.33627 -8.60258 -5.97208 14.1487 
